<svg xmlns="http://www.w3.org/2000/svg"
    xmlns:xlink="http://www.w3.org/1999/xlink" width="564.8103" height="449.94076" viewBox="0 0 564.8103 449.94076">
    <path d="M196.15526,154.13037c67.93102,0,123.00002,55.06897,123.00002,123s-55.069,123-123.00002,123-161.94494-67.3513-123-123,55.06898-123,123-123Z" fill="#FFFFFF"/>
    <path d="M360.7818,159.98167c-1.10303,0-2,.89697-2,2v64c0,1.10303,.89697,2,2,2s2-.89697,2-2v-64c0-1.10303-.89697-2-2-2Z" fill="#3f3d56"/>
    <path d="M24.7818,111.98166c-1.10303,0-2,.89697-2,2v15.99999c0,1.10303,.89697,2,2,2s2-.89697,2-2v-16c0-1.10303-.89697-2-2-1.99999Z" fill="#344ddc"/>
    <path d="M204.15526,48.98167c-1.10303,0-2,.89697-2,2v31c0,1.10303,.89697,2,2,2s2-.89697,2-2v-31c0-1.10303-.89697-2-2-2Z" fill="#344ddc"/>
    <path d="M142.37598,268.83935H73.15526v-2h69.2207c6.01318,0,10.90527-4.89258,10.90527-10.90625v-46.80273h2v46.80273c0,7.11621-5.78906,12.90625-12.90527,12.90625h.00002Z" fill="#344ddc"/>
    <rect x="117.01903" y="370.29443" width="157.43605" height="2" fill="#344ddc"/>
    <g>
        <path d="M374.34299,255.466h-84.0918c-4.53809,0-8.22998-3.69189-8.22998-8.22998v-83.06592c0-4.53809,3.69189-8.22998,8.22998-8.22998h84.0918c4.53809,0,8.22998,3.69189,8.22998,8.22998v83.06592c0,4.53809-3.69189,8.22998-8.22998,8.22998Z" fill="#e6e6e6"/>
        <path d="M305.91171,158.39219c-11.84012,0-21.43842,9.5983-21.43842,21.43842v65.64299c0,4.16435,3.37589,7.54022,7.54022,7.54022h51.41989c20.26184,0,36.68732-16.42548,36.68732-36.68733v-50.39409c0-4.16435-3.37589-7.54022-7.54022-7.54022h-66.66879v.00002Z" fill="#fff"/>
        <g>
            <path d="M354.81924,182.53161h-45.22061c-.86273,0-1.5647-.702-1.5647-1.56471s.702-1.56439,1.5647-1.56439h45.22061c.86273,0,1.56439,.70166,1.56439,1.56439s-.70166,1.56471-1.56439,1.56471Z" fill="#e6e6e6"/>
            <path d="M354.81924,215.89521h-45.22061c-.86273,0-1.5647-.702-1.5647-1.56471s.702-1.56439,1.5647-1.56439h45.22061c.86273,0,1.56439,.70166,1.56439,1.56439s-.70166,1.56471-1.56439,1.56471Z" fill="#e6e6e6"/>
            <path d="M373.1824,199.22434h-81.9469c-.86273,0-1.5647-.702-1.5647-1.56471s.702-1.56439,1.5647-1.56439h81.9469c.86273,0,1.56439,.70166,1.56439,1.56439s-.70166,1.56471-1.56439,1.56471Z" fill="#e6e6e6"/>
        </g>
        <path d="M374.01913,229.46084h-29.60361c-.86273,0-1.5647-.702-1.5647-1.56471s.702-1.56439,1.5647-1.56439h29.60361c.86273,0,1.56439,.70166,1.56439,1.56439s-.70166,1.56471-1.56439,1.56471Z" fill="#e6e6e6"/>
    </g>
    <g>
        <path d="M197.71127,420.97035h-66.77454c-3.60355,0-6.53516-2.93161-6.53516-6.53516v-65.95993c0-3.60355,2.93161-6.53516,6.53516-6.53516h66.77457c3.60355,0,6.53516,2.93161,6.53516,6.53516v65.95993c0,3.60355-2.93161,6.53516-6.53516,6.53516h-.00002Z" fill="#e6e6e6"/>
        <path d="M143.37224,343.88719c-9.40184,0-17.02355,7.6217-17.02355,17.02356v52.12497c0,3.30679,2.68067,5.98746,5.98745,5.98746h40.83086c16.08928,0,29.13222-13.04294,29.13222-29.1322v-40.0163c0-3.30679-2.68066-5.98746-5.98746-5.98746h-52.93953l.00002-.00003Z" fill="#fff"/>
        <g>
            <path d="M182.20811,363.05549h-35.9082c-.68506,0-1.24249-.55743-1.24249-1.24249s.55742-1.24222,1.24249-1.24222h35.9082c.68506,0,1.24223,.55716,1.24223,1.24222s-.55717,1.24249-1.24223,1.24249Z" fill="#e6e6e6"/>
            <path d="M182.20811,389.54847h-35.9082c-.68506,0-1.24249-.55743-1.24249-1.24249s.55742-1.24222,1.24249-1.24222h35.9082c.68506,0,1.24223,.55716,1.24223,1.24222s-.55717,1.24249-1.24223,1.24249Z" fill="#e6e6e6"/>
            <path d="M196.78969,376.31068h-65.07135c-.68506,0-1.24249-.55743-1.24249-1.24249s.55742-1.24222,1.24249-1.24222h65.07135c.68506,0,1.24223,.55716,1.24223,1.24222s-.55717,1.24249-1.24223,1.24249Z" fill="#e6e6e6"/>
        </g>
        <path d="M197.4541,400.32048h-23.50725c-.68506,0-1.24249-.55743-1.24249-1.24249s.55742-1.24222,1.24249-1.24222h23.50725c.68506,0,1.24223,.55716,1.24223,1.24222s-.55717,1.24249-1.24223,1.24249Z" fill="#e6e6e6"/>
    </g>
    <g>
        <path d="M151.04003,208.62567h-49.3827c-2.66499,0-4.83304-2.16805-4.83304-4.83303v-48.78026c0-2.66498,2.16805-4.83303,4.83303-4.83303h49.38271c2.66498,0,4.83303,2.16805,4.83303,4.83303v48.78026c0,2.66498-2.16805,4.83303-4.83303,4.83303h-.00001Z" fill="#e6e6e6"/>
        <path d="M110.85394,151.6193c-6.95307,0-12.58966,5.63658-12.58966,12.58967v38.5487c0,2.44552,1.98247,4.42799,4.42798,4.42799h30.19621c11.89873,0,21.54455-9.64582,21.54455-21.54454v-29.5938c0-2.44552-1.98247-4.42799-4.42799-4.42799h-39.1511v-.00002Z" fill="#fff"/>
        <g>
            <path d="M139.57477,165.7951h-26.55569c-.50663,0-.91888-.41225-.91888-.91888s.41224-.91867,.91888-.91867h26.55569c.50663,0,.91869,.41204,.91869,.91867s-.41206,.91888-.91869,.91888Z" fill="#e6e6e6"/>
            <path d="M139.57477,185.38782h-26.55569c-.50663,0-.91888-.41225-.91888-.91888s.41224-.91867,.91888-.91867h26.55569c.50663,0,.91869,.41204,.91869,.91867s-.41206,.91888-.91869,.91888Z" fill="#e6e6e6"/>
            <path d="M150.35848,175.59789h-48.12311c-.50663,0-.91888-.41225-.91888-.91888s.41224-.91867,.91888-.91867h48.12311c.50663,0,.91869,.41204,.91869,.91867s-.41206,.91888-.91869,.91888Z" fill="#e6e6e6"/>
        </g>
        <path d="M150.84984,193.35418h-17.38464c-.50663,0-.91888-.41225-.91888-.91888s.41224-.91867,.91888-.91867h17.38464c.50663,0,.91869,.41204,.91869,.91867s-.41206,.91888-.91869,.91888Z" fill="#e6e6e6"/>
    </g>
    <circle cx="295.15527" cy="260.13037" r="10" fill="#344ddc"/>
    <circle cx="154.15526" cy="209.13035" r="10" fill="#344ddc"/>
    <circle cx="202.15526" cy="346.13037" r="10" fill="#344ddc"/>
    <g>
        <ellipse cx="223.75633" cy="66.65212" rx="12.46327" ry="12.20069" fill="#FFFFFF"/>
        <path d="M323.66919,62.47819h-67.08496c-2.30142,0-4.17392-1.87249-4.17392-4.17392s1.8725-4.17392,4.17392-4.17392h67.08496c2.30142,0,4.17392,1.87249,4.17392,4.17392s-1.8725,4.17392-4.17392,4.17392Z" fill="#FFFFFF"/>
        <path d="M376.02252,76.6053h-119.43829c-2.30142,0-4.17392-1.87249-4.17392-4.17392s1.8725-4.17392,4.17392-4.17392h119.43829c2.30142,0,4.17392,1.87249,4.17392,4.17392s-1.8725,4.17392-4.17392,4.17392Z" fill="#FFFFFF"/>
    </g>
    <g>
        <ellipse cx="43.35911" cy="122.23425" rx="8.06605" ry="7.8961" fill="#FFFFFF"/>
        <path d="M108.02125,119.53295h-43.4164c-1.48945,0-2.7013-1.21185-2.7013-2.7013s1.21185-2.7013,2.7013-2.7013h43.4164c1.48945,0,2.7013,1.21185,2.7013,2.7013s-1.21185,2.7013-2.70129,2.7013Z" fill="#FFFFFF"/>
        <path d="M141.90355,128.67582H64.60485c-1.48945,0-2.7013-1.21185-2.7013-2.7013s1.21185-2.7013,2.7013-2.7013h77.2987c1.48946,0,2.70129,1.21185,2.70129,2.7013s-1.21185,2.7013-2.70129,2.7013Z" fill="#FFFFFF"/>
    </g>
    <g>
        <ellipse cx="285.3591" cy="403.23425" rx="8.06604" ry="7.89609" fill="#FFFFFF"/>
        <path d="M350.02124,400.53295h-43.41641c-1.48944,0-2.70129-1.21185-2.70129-2.70129s1.21185-2.70129,2.70129-2.70129h43.41641c1.48944,0,2.70129,1.21185,2.70129,2.70129s-1.21185,2.70129-2.70129,2.70129Z" fill="#FFFFFF"/>
        <path d="M383.90356,409.67581h-77.29871c-1.48944,0-2.70129-1.21185-2.70129-2.70129s1.21185-2.70129,2.70129-2.70129h77.29871c1.48944,0,2.70129,1.21185,2.70129,2.70129s-1.21185,2.70129-2.70129,2.70129Z" fill="#FFFFFF"/>
    </g>
    <rect x="186.40511" y="155.97038" width="2" height="95" fill="#f1940f"/>
    <circle cx="187.40511" cy="250.97038" r="6.00001" fill="#f1940f"/>
    <circle cx="278.40511" cy="319.97039" r="6" fill="#f1940f"/>
    <circle cx="116.40511" cy="237.97038" r="6" fill="#e6e6e6"/>
    <rect x="81.39766" y="238.47578" width="32.82787" height="2.00092" transform="translate(-7.20166 3.0694) rotate(-1.73401)" fill="#e6e6e6"/>
    <polygon points="327.21616 342.94012 277.4603 342.94012 277.4603 319.97039 279.4603 319.97039 279.4603 340.94012 327.21616 340.94012 327.21616 342.94012" fill="#f1940f"/>
    <circle cx="113.94232" cy="303.48553" r="6" fill="#f1940f"/>
    <polygon points="162.16098 326.45526 112.40511 326.45526 112.40511 303.48553 114.40511 303.48553 114.40511 324.45526 162.16098 324.45526 162.16098 326.45526" fill="#f1940f"/>
    <rect x="75.42269" y="280.65496" width="238.98243" height="2" fill="#e6e6e6"/>
</svg>